<svg xmlns="http://www.w3.org/2000/svg" id="Capa_1" enable-background="new 0 0 512 512" height="512" viewBox="0 0 512 512" width="512"><path d="m437.02 195.48c-48.353-48.351-112.64-74.98-181.02-74.98s-132.667 26.629-181.02 74.98c-48.351 48.353-74.98 112.64-74.98 181.02 0 8.284 6.716 15 15 15h180c8.284 0 15-6.716 15-15 0-25.364 20.636-46 46-46s46 20.636 46 46c0 8.284 6.716 15 15 15h180c8.284 0 15-6.716 15-15 0-68.38-26.629-132.667-74.98-181.02zm-346.335 166.02c7.608-84.529 78.839-151 165.315-151s157.707 66.471 165.315 151h-30.146c-7.491-67.958-65.248-121-135.169-121s-127.678 53.042-135.169 121zm165.315-61c-36.773 0-67.53 26.253-74.514 61h-30.42c7.309-51.37 51.577-91 104.934-91s97.625 39.63 104.934 91h-30.42c-6.984-34.748-37.741-61-74.514-61zm195.431 61c-7.687-101.094-92.403-181-195.431-181s-187.744 79.906-195.431 181h-30.077c7.75-117.647 105.934-211 225.508-211s217.757 93.353 225.508 211z"/></svg>