<?xml version="1.0" standalone="no"?>
<!DOCTYPE svg PUBLIC "-//W3C//DTD SVG 20010904//EN"
 "http://www.w3.org/TR/2001/REC-SVG-20010904/DTD/svg10.dtd">
<svg version="1.0" xmlns="http://www.w3.org/2000/svg"
 width="1080.000000pt" height="1080.000000pt" viewBox="0 0 1080.000000 1080.000000"
 preserveAspectRatio="xMidYMid meet">
<metadata>
Created by potrace 1.11, written by Peter Selinger 2001-2013
</metadata>
<g transform="translate(0.000000,1080.000000) scale(0.100000,-0.100000)"
fill="#000000" stroke="none">
<path d="M1999 10796 c-2 -2 -31 -6 -64 -10 -129 -12 -170 -18 -175 -25 -3 -3
-14 -6 -25 -7 -46 -2 -183 -37 -215 -54 -11 -6 -23 -9 -27 -9 -4 1 -17 -1 -28
-5 -11 -4 -33 -13 -50 -18 -68 -24 -239 -102 -275 -126 -14 -9 -32 -17 -40
-19 -8 -1 -16 -7 -18 -12 -2 -6 -8 -11 -13 -11 -13 0 -196 -120 -235 -155 -7
-5 -31 -26 -55 -45 -40 -33 -214 -205 -269 -267 -69 -77 -220 -298 -220 -322
0 -5 -4 -11 -9 -13 -11 -4 -103 -191 -127 -258 -10 -30 -23 -58 -27 -61 -5 -3
-8 -9 -8 -13 1 -3 1 -7 0 -8 0 -2 -2 -11 -5 -20 -7 -29 -11 -42 -17 -58 -10
-22 -55 -209 -63 -254 -3 -21 -7 -47 -9 -57 -2 -10 -7 -49 -12 -86 -10 -87
-11 -6911 0 -6978 17 -112 39 -231 44 -245 8 -19 13 -41 15 -62 1 -10 5 -18 8
-18 4 0 7 -6 7 -13 0 -16 49 -167 70 -217 32 -75 117 -247 142 -285 14 -22 32
-52 41 -67 20 -37 130 -184 177 -239 48 -55 243 -251 243 -243 0 3 17 -11 38
-30 20 -20 40 -36 44 -36 4 0 13 -6 20 -13 19 -19 147 -107 155 -107 3 0 14
-6 22 -14 44 -39 387 -198 446 -206 3 0 23 -7 45 -15 97 -34 273 -69 425 -85
89 -9 6895 -7 6935 2 14 3 48 9 75 13 28 4 59 9 70 12 11 2 31 6 45 9 75 15
121 27 175 45 33 11 68 22 78 24 56 12 332 139 402 185 17 11 37 23 45 27 25
12 145 96 148 105 2 4 7 8 12 8 8 0 41 25 81 63 10 9 21 17 24 17 9 0 218 214
245 249 14 19 31 40 38 47 39 40 152 206 152 223 0 6 4 11 8 11 5 0 19 23 32
50 13 27 27 50 32 50 4 0 8 5 8 11 0 5 17 47 39 92 21 45 47 107 57 137 10 30
23 58 27 61 5 3 8 9 8 13 -1 3 -1 7 0 9 0 1 2 9 4 17 1 8 10 41 20 74 9 32 18
64 19 70 2 6 6 22 10 36 4 14 9 39 11 55 2 17 4 30 5 30 2 0 8 31 22 128 11
75 13 719 13 3512 0 1881 -3 3447 -7 3480 -4 33 -10 74 -14 90 -3 17 -7 39 -9
50 -6 43 -18 102 -31 150 -37 138 -47 171 -54 180 -5 6 -8 14 -8 18 1 52 -199
440 -263 513 -11 11 -19 25 -19 31 0 6 -3 13 -8 15 -4 2 -23 23 -42 48 -80
105 -264 290 -366 367 -116 88 -254 179 -263 174 -2 -2 -7 1 -10 6 -8 12 -191
105 -191 97 0 -4 -6 -2 -12 4 -21 16 -174 73 -288 106 -58 16 -177 41 -245 51
-23 3 -52 8 -65 12 -24 7 -6894 15 -6901 9z"/>
</g>
</svg>
