<svg xmlns="http://www.w3.org/2000/svg" viewBox="0 0 19.66 19.4"><defs></defs><title>Ресурс 3</title><g id="Слой_2" data-name="Слой 2"><g id="Слой_1-2" data-name="Слой 1"><path d="M12.94,1.5a1,1,0,0,1,1.05,1v14.3a1,1,0,0,1-1.05,1H2.55a1,1,0,0,1-1-1V2.55a1,1,0,0,1,1-1H12.94m0-1.5H2.55A2.55,2.55,0,0,0,0,2.55v14.3A2.55,2.55,0,0,0,2.55,19.4H12.94a2.55,2.55,0,0,0,2.55-2.55V2.55A2.55,2.55,0,0,0,12.94,0Z"/><path class="cls-1" d="M15.5,3.12a.77.77,0,1,1-1.53,0h-.14V16.43H14a.77.77,0,1,1,1.53,0h.15V3.12Z"/><rect x="4.36" y="8.96" width="15.29" height="1.63" rx="0.82"/><rect x="16.15" y="4.37" width="1.6" height="6.98" rx="0.8" transform="translate(-0.59 14.29) rotate(-45)"/><rect x="16.15" y="8.2" width="1.6" height="6.98" rx="0.8" transform="translate(13.23 -8.56) rotate(45)"/></g></g></svg>