<svg xmlns="http://www.w3.org/2000/svg" viewBox="0 0 23.47 26.55"><defs><style>.cls-1{isolation:isolate;}</style></defs><title>Ресурс 4</title><g id="Слой_2" data-name="Слой 2"><g id="Слой_1-2" data-name="Слой 1"><g class="cls-1"><path d="M2.89.75V7.11a.76.76,0,0,1-1.51,0V2.06l-.25.15a.76.76,0,0,1-1-.28A.75.75,0,0,1,.38.9L1.76.1l0,0,.08,0,.07,0L2,0h.3l.07,0,.07,0,.06,0,.06,0,.06,0,.05,0a.1.1,0,0,1,0,0,.18.18,0,0,1,0,.07l0,0a0,0,0,0,1,0,0,.3.3,0,0,1,0,.08s0,.05,0,.07,0,0,0,.07a.22.22,0,0,0,0,.08Z"/></g><g class="cls-1"><path d="M9.53,10.82v5.87a1,1,0,0,1-2,0v-.15a3.24,3.24,0,0,1-2.43,1.15,3.71,3.71,0,0,1-3.44-3.94A3.72,3.72,0,0,1,5.09,9.81,3.25,3.25,0,0,1,7.52,11v-.15a1,1,0,1,1,2,0Zm-2.3,2.93a2,2,0,0,0-1.81-2.07,2,2,0,0,0-1.81,2.07,2,2,0,0,0,1.81,2.08A2,2,0,0,0,7.23,13.75Z"/></g><g class="cls-1"><path d="M11.88,19.5a.84.84,0,1,1,.84-.84A.85.85,0,0,1,11.88,19.5Zm0,7.05a.84.84,0,0,0,.84-.84V20.8a.84.84,0,0,0-1.68,0v4.91A.84.84,0,0,0,11.88,26.55Z"/></g><rect x="5.23" y="3.57" width="18.23" height="2.05" rx="1.02"/><rect x="11.57" y="12.7" width="11.9" height="2.05" rx="1.02"/><rect x="14.35" y="21.83" width="9.12" height="2.05" rx="1.02"/></g></g></svg>